<!-- <svg width="164" height="50" viewBox="0 0 164 50" fill="none" xmlns="http://www.w3.org/2000/svg">
<path d="M78.55 16.45V28.4C78.55 30.25 78.025 31.675 76.975 32.675C75.9417 33.675 74.5417 34.175 72.775 34.175C70.925 34.175 69.4417 33.65 68.325 32.6C67.2083 31.55 66.65 30.0583 66.65 28.125H70.9C70.9 28.8583 71.05 29.4167 71.35 29.8C71.65 30.1667 72.0833 30.35 72.65 30.35C73.1667 30.35 73.5667 30.1833 73.85 29.85C74.1333 29.5167 74.275 29.0333 74.275 28.4V16.45H78.55ZM90.8531 34.2C89.4865 34.2 88.2531 33.9083 87.1531 33.325C86.0698 32.7417 85.2115 31.9083 84.5781 30.825C83.9615 29.7417 83.6531 28.475 83.6531 27.025C83.6531 25.5917 83.9698 24.3333 84.6031 23.25C85.2365 22.15 86.1031 21.3083 87.2031 20.725C88.3031 20.1417 89.5365 19.85 90.9031 19.85C92.2698 19.85 93.5031 20.1417 94.6031 20.725C95.7031 21.3083 96.5698 22.15 97.2031 23.25C97.8365 24.3333 98.1531 25.5917 98.1531 27.025C98.1531 28.4583 97.8281 29.725 97.1781 30.825C96.5448 31.9083 95.6698 32.7417 94.5531 33.325C93.4531 33.9083 92.2198 34.2 90.8531 34.2ZM90.8531 30.5C91.6698 30.5 92.3615 30.2 92.9281 29.6C93.5115 29 93.8031 28.1417 93.8031 27.025C93.8031 25.9083 93.5198 25.05 92.9531 24.45C92.4031 23.85 91.7198 23.55 90.9031 23.55C90.0698 23.55 89.3781 23.85 88.8281 24.45C88.2781 25.0333 88.0031 25.8917 88.0031 27.025C88.0031 28.1417 88.2698 29 88.8031 29.6C89.3531 30.2 90.0365 30.5 90.8531 30.5ZM107.196 22.025C107.596 21.375 108.171 20.85 108.921 20.45C109.671 20.05 110.529 19.85 111.496 19.85C112.646 19.85 113.688 20.1417 114.621 20.725C115.554 21.3083 116.288 22.1417 116.821 23.225C117.371 24.3083 117.646 25.5667 117.646 27C117.646 28.4333 117.371 29.7 116.821 30.8C116.288 31.8833 115.554 32.725 114.621 33.325C113.688 33.9083 112.646 34.2 111.496 34.2C110.513 34.2 109.654 34.0083 108.921 33.625C108.188 33.225 107.613 32.7 107.196 32.05V34H102.921V15.5H107.196V22.025ZM113.296 27C113.296 25.9333 112.996 25.1 112.396 24.5C111.813 23.8833 111.088 23.575 110.221 23.575C109.371 23.575 108.646 23.8833 108.046 24.5C107.463 25.1167 107.171 25.9583 107.171 27.025C107.171 28.0917 107.463 28.9333 108.046 29.55C108.646 30.1667 109.371 30.475 110.221 30.475C111.071 30.475 111.796 30.1667 112.396 29.55C112.996 28.9167 113.296 28.0667 113.296 27ZM124.539 18.6C123.789 18.6 123.172 18.3833 122.689 17.95C122.222 17.5 121.989 16.95 121.989 16.3C121.989 15.6333 122.222 15.0833 122.689 14.65C123.172 14.2 123.789 13.975 124.539 13.975C125.272 13.975 125.872 14.2 126.339 14.65C126.822 15.0833 127.064 15.6333 127.064 16.3C127.064 16.95 126.822 17.5 126.339 17.95C125.872 18.3833 125.272 18.6 124.539 18.6ZM126.664 20.05V34H122.389V20.05H126.664ZM139.262 23.6H136.962V34H132.687V23.6H131.137V20.05H132.687V19.65C132.687 17.9333 133.179 16.6333 134.162 15.75C135.145 14.85 136.587 14.4 138.487 14.4C138.804 14.4 139.037 14.4083 139.187 14.425V18.05C138.37 18 137.795 18.1167 137.462 18.4C137.129 18.6833 136.962 19.1917 136.962 19.925V20.05H139.262V23.6ZM158.021 20.05L149.271 40.625H144.671L147.871 33.525L142.196 20.05H146.971L150.196 28.775L153.396 20.05H158.021Z" fill="#2563EB"/>
<rect width="50" height="50" rx="10" fill="#2563EB"/>
<path d="M26.0039 9.5625H31.8633V29.25C31.8633 31.0599 31.4596 32.6615 30.6523 34.0547C29.8581 35.4349 28.7318 36.5026 27.2734 37.2578C25.8151 38.013 24.168 38.3906 22.332 38.3906C19.3242 38.3906 16.9805 37.6289 15.3008 36.1055C13.6211 34.569 12.7812 32.401 12.7812 29.6016H18.6797C18.6797 30.9948 18.9727 32.0234 19.5586 32.6875C20.1445 33.3516 21.069 33.6836 22.332 33.6836C23.4518 33.6836 24.3438 33.2995 25.0078 32.5312C25.6719 31.763 26.0039 30.6693 26.0039 29.25V9.5625Z" fill="white"/>
</svg>
 -->
<svg width="164" height="50" viewBox="0 0 164 50" fill="none" xmlns="http://www.w3.org/2000/svg">
<path d="M147.552 27.2273L147.518 24.7386H147.927L153.654 18.9091H156.143L150.041 25.0795H149.87L147.552 27.2273ZM145.677 32V14.5455H147.688V32H145.677ZM153.995 32L148.881 25.5227L150.313 24.125L156.552 32H153.995Z" fill="#2563EB"/>
<path d="M137.589 32.2727C136.362 32.2727 135.305 31.983 134.418 31.4034C133.532 30.8239 132.85 30.0256 132.373 29.0085C131.896 27.9915 131.657 26.8295 131.657 25.5227C131.657 24.1932 131.901 23.0199 132.39 22.0028C132.884 20.9801 133.572 20.1818 134.452 19.608C135.339 19.0284 136.373 18.7386 137.555 18.7386C138.475 18.7386 139.305 18.9091 140.043 19.25C140.782 19.5909 141.387 20.0682 141.859 20.6818C142.33 21.2955 142.623 22.0114 142.737 22.8295H140.725C140.572 22.233 140.231 21.7045 139.702 21.2443C139.18 20.7784 138.475 20.5455 137.589 20.5455C136.805 20.5455 136.117 20.75 135.526 21.1591C134.941 21.5625 134.484 22.1335 134.154 22.8722C133.83 23.6051 133.668 24.4659 133.668 25.4545C133.668 26.4659 133.827 27.3466 134.146 28.0966C134.469 28.8466 134.924 29.429 135.509 29.8437C136.1 30.2585 136.793 30.4659 137.589 30.4659C138.112 30.4659 138.586 30.375 139.012 30.1932C139.438 30.0114 139.799 29.75 140.094 29.4091C140.39 29.0682 140.6 28.6591 140.725 28.1818H142.737C142.623 28.9545 142.342 29.6506 141.893 30.2699C141.45 30.8835 140.862 31.3722 140.129 31.7358C139.401 32.0937 138.555 32.2727 137.589 32.2727Z" fill="#2563EB"/>
<path d="M122.599 32.3068C121.77 32.3068 121.017 32.1506 120.341 31.8381C119.665 31.5199 119.128 31.0625 118.73 30.4659C118.332 29.8636 118.134 29.1364 118.134 28.2841C118.134 27.5341 118.281 26.9261 118.577 26.4602C118.872 25.9886 119.267 25.6193 119.761 25.3523C120.256 25.0852 120.801 24.8864 121.398 24.7557C122 24.6193 122.605 24.5114 123.213 24.4318C124.009 24.3295 124.653 24.2528 125.148 24.2017C125.648 24.1449 126.011 24.0511 126.239 23.9205C126.472 23.7898 126.588 23.5625 126.588 23.2386V23.1705C126.588 22.3295 126.358 21.6761 125.898 21.2102C125.443 20.7443 124.753 20.5114 123.827 20.5114C122.867 20.5114 122.114 20.7216 121.568 21.142C121.023 21.5625 120.639 22.0114 120.418 22.4886L118.509 21.8068C118.849 21.0114 119.304 20.392 119.872 19.9489C120.446 19.5 121.071 19.1875 121.747 19.0114C122.429 18.8295 123.099 18.7386 123.759 18.7386C124.179 18.7386 124.662 18.7898 125.207 18.892C125.759 18.9886 126.29 19.1903 126.801 19.4972C127.318 19.804 127.747 20.267 128.088 20.8864C128.429 21.5057 128.599 22.3352 128.599 23.375V32H126.588V30.2273H126.486C126.349 30.5114 126.122 30.8153 125.804 31.1392C125.486 31.4631 125.063 31.7386 124.534 31.9659C124.006 32.1932 123.361 32.3068 122.599 32.3068ZM122.906 30.5C123.702 30.5 124.372 30.3437 124.918 30.0312C125.469 29.7187 125.884 29.3153 126.162 28.821C126.446 28.3267 126.588 27.8068 126.588 27.2614V25.4205C126.503 25.5227 126.315 25.6165 126.026 25.7017C125.741 25.7812 125.412 25.8523 125.037 25.9148C124.668 25.9716 124.307 26.0227 123.955 26.0682C123.608 26.108 123.327 26.142 123.111 26.1705C122.588 26.2386 122.099 26.3494 121.645 26.5028C121.196 26.6506 120.832 26.875 120.554 27.1761C120.281 27.4716 120.145 27.875 120.145 28.3864C120.145 29.0852 120.403 29.6136 120.92 29.9716C121.443 30.3239 122.105 30.5 122.906 30.5Z" fill="#2563EB"/>
<path d="M109.817 32V18.9091H111.761V20.8864H111.897C112.136 20.2386 112.567 19.7131 113.192 19.3097C113.817 18.9062 114.522 18.7045 115.306 18.7045C115.454 18.7045 115.638 18.7074 115.86 18.7131C116.082 18.7188 116.249 18.7273 116.363 18.7386V20.7841C116.295 20.767 116.138 20.7415 115.894 20.7074C115.656 20.6676 115.403 20.6477 115.136 20.6477C114.499 20.6477 113.931 20.7812 113.431 21.0483C112.937 21.3097 112.545 21.6733 112.255 22.1392C111.971 22.5994 111.829 23.125 111.829 23.7159V32H109.817Z" fill="#2563EB"/>
<path d="M106.792 18.9091V20.6136H100.008V18.9091H106.792ZM101.985 15.7727H103.996V28.25C103.996 28.8182 104.079 29.2443 104.244 29.5284C104.414 29.8068 104.63 29.9943 104.891 30.0909C105.158 30.1818 105.44 30.2273 105.735 30.2273C105.957 30.2273 106.138 30.2159 106.281 30.1932C106.423 30.1648 106.536 30.1421 106.621 30.125L107.031 31.9318C106.894 31.983 106.704 32.0341 106.46 32.0852C106.215 32.1421 105.906 32.1705 105.531 32.1705C104.962 32.1705 104.406 32.0483 103.86 31.804C103.32 31.5597 102.871 31.1875 102.513 30.6875C102.161 30.1875 101.985 29.5568 101.985 28.7955V15.7727Z" fill="#2563EB"/>
<path d="M86.4652 32V14.5455H88.4766V20.9886H88.647C88.7948 20.7614 88.9993 20.4716 89.2607 20.1193C89.5277 19.7614 89.9084 19.4432 90.4027 19.1648C90.9027 18.8807 91.5788 18.7386 92.4311 18.7386C93.5334 18.7386 94.505 19.0142 95.3459 19.5653C96.1868 20.1165 96.8431 20.8977 97.3146 21.9091C97.7862 22.9205 98.022 24.1136 98.022 25.4886C98.022 26.875 97.7862 28.0767 97.3146 29.0938C96.8431 30.1051 96.1896 30.8892 95.3544 31.446C94.5192 31.9972 93.5561 32.2727 92.4652 32.2727C91.6243 32.2727 90.951 32.1335 90.4453 31.8551C89.9396 31.571 89.5504 31.25 89.2777 30.892C89.005 30.5284 88.7948 30.2273 88.647 29.9886H88.4084V32H86.4652ZM88.4425 25.4545C88.4425 26.4432 88.5874 27.3153 88.8771 28.071C89.1669 28.821 89.5902 29.4091 90.147 29.8352C90.7038 30.2557 91.3857 30.4659 92.1925 30.4659C93.0334 30.4659 93.7351 30.2443 94.2976 29.8011C94.8658 29.3523 95.2919 28.75 95.576 27.9943C95.8658 27.233 96.0107 26.3864 96.0107 25.4545C96.0107 24.5341 95.8686 23.7045 95.5845 22.9659C95.3061 22.2216 94.8828 21.6335 94.3146 21.2017C93.7521 20.7642 93.0448 20.5455 92.1925 20.5455C91.3743 20.5455 90.6868 20.7528 90.13 21.1676C89.5732 21.5767 89.1527 22.1506 88.8686 22.8892C88.5845 23.6222 88.4425 24.4773 88.4425 25.4545Z" fill="#2563EB"/>
<path d="M77.1904 32.2727C76.0085 32.2727 74.9716 31.9915 74.0796 31.429C73.1932 30.8665 72.5 30.0795 72 29.0682C71.5057 28.0568 71.2585 26.875 71.2585 25.5227C71.2585 24.1591 71.5057 22.9687 72 21.9517C72.5 20.9347 73.1932 20.1449 74.0796 19.5824C74.9716 19.0199 76.0085 18.7386 77.1904 18.7386C78.3722 18.7386 79.4063 19.0199 80.2926 19.5824C81.1847 20.1449 81.8779 20.9347 82.3722 21.9517C82.8722 22.9687 83.1222 24.1591 83.1222 25.5227C83.1222 26.875 82.8722 28.0568 82.3722 29.0682C81.8779 30.0795 81.1847 30.8665 80.2926 31.429C79.4063 31.9915 78.3722 32.2727 77.1904 32.2727ZM77.1904 30.4659C78.0881 30.4659 78.8267 30.2358 79.4063 29.7756C79.9858 29.3153 80.4148 28.7102 80.6932 27.9602C80.9716 27.2102 81.1108 26.3977 81.1108 25.5227C81.1108 24.6477 80.9716 23.8324 80.6932 23.0767C80.4148 22.321 79.9858 21.7102 79.4063 21.2443C78.8267 20.7784 78.0881 20.5455 77.1904 20.5455C76.2926 20.5455 75.554 20.7784 74.9745 21.2443C74.3949 21.7102 73.9659 22.321 73.6875 23.0767C73.4091 23.8324 73.2699 24.6477 73.2699 25.5227C73.2699 26.3977 73.4091 27.2102 73.6875 27.9602C73.9659 28.7102 74.3949 29.3153 74.9745 29.7756C75.554 30.2358 76.2926 30.4659 77.1904 30.4659Z" fill="#2563EB"/>
<path d="M65.7955 14.5455H67.9091V27.0227C67.9091 28.1364 67.7046 29.0824 67.2955 29.8608C66.8864 30.6392 66.3097 31.2301 65.5654 31.6335C64.821 32.0369 63.9432 32.2386 62.9318 32.2386C61.9773 32.2386 61.1279 32.0653 60.3835 31.7188C59.6392 31.3665 59.054 30.8665 58.6279 30.2188C58.2017 29.571 57.9886 28.8011 57.9886 27.9091H60.0682C60.0682 28.4034 60.1904 28.8352 60.4347 29.2045C60.6847 29.5682 61.0256 29.8523 61.4574 30.0568C61.8892 30.2614 62.3807 30.3636 62.9318 30.3636C63.5398 30.3636 64.0568 30.2358 64.483 29.9801C64.9091 29.7244 65.233 29.3494 65.4546 28.8551C65.6818 28.3551 65.7955 27.7443 65.7955 27.0227V14.5455Z" fill="#2563EB"/>
<path d="M40 0H10C4.47715 0 0 4.47715 0 10V40C0 45.5228 4.47715 50 10 50H40C45.5228 50 50 45.5228 50 40V10C50 4.47715 45.5228 0 40 0Z" fill="#2563EB"/>
<path d="M26.0039 9.5625H31.8633V29.25C31.8633 31.0599 31.4596 32.6615 30.6523 34.0547C29.8581 35.4349 28.7318 36.5026 27.2734 37.2578C25.8151 38.013 24.168 38.3906 22.332 38.3906C19.3242 38.3906 16.9805 37.6289 15.3008 36.1055C13.6211 34.569 12.7812 32.401 12.7812 29.6016H18.6797C18.6797 30.9948 18.9727 32.0234 19.5586 32.6875C20.1445 33.3516 21.069 33.6836 22.332 33.6836C23.4518 33.6836 24.3438 33.2995 25.0078 32.5312C25.6719 31.763 26.0039 30.6693 26.0039 29.25V9.5625Z" fill="white"/>
</svg>